<svg xmlns="http://www.w3.org/2000/svg" viewBox="0 0 64 64" width="64" height="64">
  <circle cx="32" cy="32" r="28" fill="#6E7A90" fill-opacity="0.14"/>
  <g stroke="#6E7A90" stroke-width="5.172" stroke-linecap="round" stroke-linejoin="round"
     fill="#6E7A90" fill-opacity="0.22">
    <g transform="translate(2 14.28) scale(0.58)">
    <path d="M32 10v7 M28.5 13.5h7" fill="none"/>
    <path d="M21 21l4 11h14l4-11-6.5 6.5-4.5-8-4.5 8-6.5-6.5z"/>
    <path d="M25 32c0 10-6 13-9 18h32c-3-5-9-8-9-18"/>
    <rect x="14" y="50" width="36" height="4" rx="2"/>
    <rect x="18" y="55" width="28" height="3" rx="1.5"/>
    </g>
    <g transform="translate(24.88 14.28) scale(0.58)">
    <path d="M32 10v7 M28.5 13.5h7" fill="none"/>
    <path d="M21 21l4 11h14l4-11-6.5 6.5-4.5-8-4.5 8-6.5-6.5z"/>
    <path d="M25 32c0 10-6 13-9 18h32c-3-5-9-8-9-18"/>
    <rect x="14" y="50" width="36" height="4" rx="2"/>
    <rect x="18" y="55" width="28" height="3" rx="1.5"/>
    </g>
  </g>
</svg>
