<?xml version="1.0" encoding="UTF-8"?>
<svg xmlns="http://www.w3.org/2000/svg" viewBox="0 0 64 64" width="64" height="64"><defs><linearGradient id="loss-g" x1="0" y1="0" x2="0" y2="1"><stop offset="0" stop-color="#FB7185"/><stop offset="1" stop-color="#DC2626"/></linearGradient></defs><ellipse cx="33" cy="55" rx="23" ry="4.2" fill="#4c0519" opacity="0.20"/><g transform="translate(34 34) rotate(-83) scale(1.14) translate(-22.5 -21.5)"><g stroke="#7F1D1D" stroke-width="1.7" stroke-linecap="round" stroke-linejoin="round" fill="none"><path stroke-linejoin="miter" d="M22.5 11.63V6M20 8h5"/><path fill="url(#loss-g)" stroke-linecap="butt" stroke-linejoin="miter" d="M22.5 25s4.5-7.5 3-10.5c0 0-1-2.5-3-2.5s-3 2.5-3 2.5c-1.5 3 3 10.5 3 10.5"/><path fill="url(#loss-g)" d="M12.5 37c5.5 3.5 14.5 3.5 20 0v-7s9-4.5 6-10.5c-4-6.5-13.5-3.5-16 4V27v-3.5c-2.5-7.5-12-10.5-16-4-3 6 6 10.5 6 10.5v7"/><path d="M12.5 30c5.5-3 14.5-3 20 0m-20 3.5c5.5-3 14.5-3 20 0m-20 3.5c5.5-3 14.5-3 20 0"/><ellipse stroke="none" cx="18.6" cy="13" rx="2.1" ry="4" fill="#fff" opacity="0.22"/></g></g><g stroke="#fca5a5" stroke-width="1.6" stroke-linecap="round" fill="none" opacity="0.85"><path d="M13 15 q-3 -2 -5.5 -1.2"/><path d="M13.5 21 q-3.5 0 -6.2 2"/><path d="M15.5 26.5 q-3 1.6 -4.6 4.2"/></g></svg>
